<svg xmlns="http://www.w3.org/2000/svg" viewBox="0 0 48 48">
    <rect width="31" height="2" x="8.5" y="12" fill="#2196f3"></rect>
    <rect width="31" height="2" x="8.5" y="12" fill="#2196f3"></rect>
    <rect width="31" height="2" x="8.5" y="34" fill="#2196f3"></rect>
    <path fill="#2196f3"
          d="M7.426,17c2.085-4.911,6.289-8.714,11.462-10.25c-1.965,2.298-3.48,5.898-4.273,10.25h2.048 C17.776,11.281,20.182,6.998,23,6.164V17h2V6.164c2.818,0.833,5.224,5.117,6.337,10.836h2.048 c-0.793-4.352-2.308-7.952-4.273-10.25c5.173,1.536,9.377,5.339,11.462,10.25h2.137C39.865,9.419,32.563,4,24,4 S8.135,9.419,5.289,17H7.426z"></path>
    <path fill="#2196f3"
          d="M40.574,31c-2.085,4.911-6.289,8.714-11.462,10.25c1.965-2.298,3.48-5.898,4.273-10.25h-2.048 C30.224,36.719,27.818,41.002,25,41.836V31h-2v10.836c-2.818-0.833-5.224-5.117-6.337-10.836h-2.048 c0.793,4.352,2.308,7.952,4.273,10.25C13.715,39.714,9.511,35.911,7.426,31H5.289C8.135,38.581,15.437,44,24,44 s15.865-5.419,18.711-13H40.574z"></path>
    <path fill="#3f51b5"
          d="M12.858,26.867c0.744,0,1.123-0.484,1.135-1.452h2.415c-0.012,1.071-0.342,1.936-0.989,2.596 C14.77,28.67,13.935,29,12.912,29c-1.265,0-2.23-0.393-2.896-1.18C9.351,27.033,9.012,25.874,9,24.343v-0.781 c0-1.543,0.328-2.72,0.985-3.531c0.657-0.811,1.626-1.216,2.909-1.216c1.083,0,1.936,0.334,2.56,1.003 c0.623,0.669,0.941,1.617,0.953,2.846h-2.415c-0.006-0.551-0.097-0.974-0.272-1.271c-0.175-0.297-0.466-0.445-0.871-0.445 c-0.448,0-0.769,0.159-0.962,0.477c-0.194,0.318-0.297,0.933-0.309,1.847v0.998c0,0.799,0.039,1.357,0.118,1.675 c0.079,0.318,0.209,0.551,0.39,0.699S12.525,26.867,12.858,26.867z"></path>
    <path fill="#3f51b5"
          d="M17.56,23.59c0-1.489,0.351-2.657,1.053-3.504c0.702-0.847,1.673-1.271,2.914-1.271 c1.253,0,2.23,0.424,2.932,1.271c0.702,0.847,1.053,2.021,1.053,3.522v0.626c0,1.495-0.348,2.663-1.044,3.504S22.797,29,21.545,29 c-1.259,0-2.238-0.422-2.936-1.266s-1.048-2.017-1.048-3.517V23.59z M20.138,24.234c0,1.755,0.469,2.632,1.407,2.632 c0.865,0,1.331-0.732,1.398-2.197l0.009-1.08c0-0.896-0.124-1.56-0.372-1.992c-0.248-0.433-0.599-0.649-1.053-0.649 c-0.436,0-0.776,0.216-1.021,0.649c-0.245,0.433-0.368,1.097-0.368,1.992V24.234z"></path>
    <path fill="#3f51b5"
          d="M29.523,18.997l0.073,0.908c0.575-0.726,1.334-1.089,2.278-1.089c0.98,0,1.673,0.442,2.079,1.325 c0.563-0.884,1.365-1.325,2.405-1.325c1.719,0,2.599,1.189,2.641,3.567v6.436h-2.569v-6.272c0-0.569-0.079-0.974-0.236-1.216 s-0.424-0.363-0.799-0.363c-0.478,0-0.835,0.293-1.071,0.88l0.018,0.309v6.663h-2.569v-6.254c0-0.563-0.076-0.97-0.227-1.221 c-0.151-0.251-0.421-0.377-0.808-0.377c-0.442,0-0.793,0.239-1.053,0.717v7.135h-2.569v-9.821H29.523z"></path>
    <path fill="#2196f3"
          d="M24,44C12.972,44,4,35.028,4,24S12.972,4,24,4c11.028,0,20,8.972,20,20S35.028,44,24,44z M24,6	C14.075,6,6,14.075,6,24s8.075,18,18,18c9.925,0,18-8.075,18-18S33.925,6,24,6z"></path>
</svg>